<?xml version="1.0" encoding="utf-8"?>
<!-- Generator: Adobe Illustrator 16.0.0, SVG Export Plug-In . SVG Version: 6.00 Build 0)  -->
<!DOCTYPE svg PUBLIC "-//W3C//DTD SVG 1.1//EN" "http://www.w3.org/Graphics/SVG/1.1/DTD/svg11.dtd">
<svg version="1.1" id="Layer_1" xmlns="http://www.w3.org/2000/svg" xmlns:xlink="http://www.w3.org/1999/xlink" x="0px" y="0px"
	 width="436px" height="417px" viewBox="0 0 436 417" enable-background="new 0 0 436 417" xml:space="preserve">
<g transform="translate(0.000000,725.000000) scale(0.100000,-0.100000)">
	<path fill="#FFFFFF" d="M1907.502,7024.611c-781.006-107.002-1417.002-653.994-1602.998-1380
		c-45-175.996-52.002-238.994-52.002-460c0.996-188.989,3.994-222.993,27.998-336.001c107.998-510,410.996-936.992,857.998-1209.004
		c362.002-220.996,809.004-321.992,1230-278.984c759.004,76.992,1394.004,566.992,1632.998,1257.988
		c37.002,105.996,86.006,323.008,86.006,380c0,17.012,5,30.996,10,30.996c5.996,0,10,60,10,160.005c0,100-4.004,160-10,160
		c-5,0-10,15-10,33.008c0,16.992-7.002,70-15,115.996c-141.006,802.002-801.006,1415-1642.998,1525.996
		C2293.498,7042.609,2039.504,7042.609,1907.502,7024.611z M2457.502,6764.611c40.996-8.994,82.002-17.998,90-22.002
		c7.998-2.998,20-6.992,25-7.998c5.996,0,17.002-3.994,25-7.002c7.998-2.998,68.994-22.998,135-42.998
		c113.994-35.996,322.998-130,311.992-140.996c-2.998-2.998-37.998-10-76.992-15c-97.002-14.004-193.008-50-305-114.004
		l-92.002-52.998l-64.004,12.998c-226.992,47.002-523.994,44.004-748.994-7.998c-55-12.998-55-12.998-101.006,20
		c-67.998,47.998-182.998,100-281.992,126.006c-67.002,16.992-86.006,25.996-75,33.994
		c35.996,29.004,205.996,104.004,312.998,137.998c65.996,20,127.002,40,135,42.998c7.998,3.008,20,7.002,25,7.002
		c5.996,1.006,17.002,5,25,7.998C1884.504,6779.611,2312.502,6793.615,2457.502,6764.611z M3177.502,6455.617
		c87.998-62.002,298.994-282.998,365.996-381.006c122.002-178.994,184.004-315.996,235.996-518.994
		c29.004-112.998,31.006-136.006,35-337.998c5-205.005,3.008-224.009-20.996-340.005
		c-49.004-233.008-112.002-385.996-237.002-574.004c-95.996-142.988-300-347.988-438.994-440.996
		c-64.004-43.008-249.004-143.008-265-143.008c-3.008,0-5,6.016-5,14.004c0,8.008-22.002,30-50,50
		c-87.002,62.012-84.004,52.012-90,375.996c-5,262.012-7.002,290-27.998,344.004c-25,69.004-64.004,114.004-145,167.012
		l-58.008,37.988l33.008,5c17.998,3.008,55.996,8.008,82.998,10.996c275,33.008,520.996,188.008,620,388.008
		c62.998,128.999,77.998,208.003,78.994,406.997c1.006,153.008-2.002,185-22.002,252.998c-26.992,96.006-76.992,197.002-130,263.008
		l-40,50l10,60c15,92.002-3.994,280.996-37.998,367.998c-7.002,17.998-5.996,17.998,22.002,0
		C3109.494,6503.615,3147.502,6477.619,3177.502,6455.617z M1172.502,6374.611c-19.004-107.998-19.004-160.996,0-248.994
		l13.994-67.998l-32.998-42.002c-52.998-65-103.994-165-127.002-252.002c-17.998-65-21.992-107.002-21.992-234.004
		c-1.006-180,20-286.992,78.994-406.001c104.004-210,337.998-347.988,669.004-394.004c127.002-16.992,127.998-17.988,60-50
		c-67.998-30.996-127.002-86.992-150-141.992c-24.004-59.004-97.002-93.008-200-93.008c-116.006,0-172.998,33.008-312.998,183.008
		c-58.008,61.992-123.008,121.992-144.004,133.008c-60.996,30.996-157.998,20.996-157.998-16.016c0-7.988,40-53.984,88.994-101.992
		c60-60,103.008-114.004,135-169.004c84.004-146.992,154.004-205.996,295-247.988c61.006-18.008,169.004-21.016,220-6.016
		c19.004,5,36.006,8.008,38.008,7.012c0.996-2.012,5.996-74.004,8.994-160c7.998-189.004,1.006-214.004-82.002-277.011
		c-30-21.992-53.994-46.992-53.994-55c0-7.988-2.002-15-5-15c-16.006,0-201.006,100-265,143.008
		c-139.004,93.008-342.998,298.008-439.004,440.996c-125,188.008-187.998,340.996-237.002,574.004
		c-23.994,115.996-25.996,135-20.996,340.005c4.004,201.992,5.996,225,35,337.998c75,292.998,197.998,507.998,417.998,732.002
		c110,110.996,194.004,185,202.002,177.998C1186.496,6463.615,1181.496,6422.619,1172.502,6374.611z M1690.5,6011.613
		c110-37.002,265-148.994,357.002-257.002c52.002-62.002,78.994-85,100.996-85c14.004,0,54.004,31.006,112.998,87.998
		c216.006,209.004,335,272.002,512.002,272.002c137.998,0,229.004-36.992,337.002-135.996
		c110.996-102.998,152.002-215.996,145-409.004c-4.004-113.994-6.006-123.994-41.006-195.996
		c-61.992-129.009-147.998-209.009-267.998-249.009c-55-18.984-80-20.996-178.994-17.988
		c-182.998,7.988-292.002,61.992-464.004,232.993c-62.002,61.006-113.994,105-125.996,105c-11.006,0-45-23.994-77.002-53.994
		c-234.004-217.007-370-286.011-557.998-286.011c-99.004,1.016-152.002,12.012-232.998,52.012
		c-110,55-202.002,159.995-243.008,279.995c-18.994,56.006-20,79.004-15.996,197.998c5,139.004,10.996,166.006,64.004,265
		c40.996,77.002,127.998,153.008,220,190C1412.502,6035.617,1603.498,6039.611,1690.5,6011.613z M2219.504,4157.614
		c3.994-283.008,5.996-306.992,25.996-363.008c32.002-85,80-130.996,164.004-155.996c100-29.004,108.994-20,60.996,67.012
		l-37.998,68.984l-2.998,328.008c-2.002,180,0,326.992,2.998,326.992c15,0,62.998-33.984,75.996-53.984
		c11.006-16.016,15-81.016,19.004-286.016c3.994-186.992,8.994-271.992,17.998-286.992c29.004-51.992,129.004-103.008,200-103.008
		c22.998,0,32.002-3.984,27.002-8.984c-13.008-13.008-166.006-57.012-267.998-77.012c-45-9.004-86.006-20-91.006-24.004
		c-5-5-110-5.996-235-2.988c-237.998,5-330.996,17.988-510,69.004c-113.994,32.988-128.994,42.988-65.996,43.984
		c53.994,0,125.996,28.008,162.998,63.008c54.004,50,55.996,63.008,62.002,350l5,269.004l27.998,24.004
		c15,12.988,32.998,23.984,37.998,23.984c7.002,0,9.004-112.988,7.002-322.988l-2.998-323.008l-37.002-74.004
		c-20-40.996-34.004-77.988-32.002-81.992c7.998-11.992,45-9.004,105,8.008c69.004,20,127.002,77.988,152.998,153.984
		c17.002,49.004,20,90,23.008,363.008l3.994,306.992h49.004h47.998L2219.504,4157.614z"/>
	<path fill="#FFFFFF" d="M2757.502,5867.619c-36.006-13.008-86.006-35.01-111.006-50.01
		c-105.996-61.992-326.992-265.996-347.998-319.99c-13.994-37.002,2.998-64.004,97.002-157.002
		c60.996-60,107.998-96.006,157.002-121.006c67.002-33.994,72.998-35,180-35c98.994,0,115,3.008,165.996,28.008
		c252.002,122.998,297.998,502.998,77.998,640C2911.496,5892.619,2841.496,5896.613,2757.502,5867.619z"/>
	<path fill="#FFFFFF" d="M1465.5,5854.611c-155.996-42.998-267.002-182.998-275.996-350.996
		c-6.006-107.002,13.994-175,68.994-237.998c52.002-59.004,102.998-85,182.002-92.998c115-10,250,41.992,382.002,146.992
		c88.994,72.002,215,205,215,228.008c0,40.996-141.006,190.996-236.006,251.992
		C1701.496,5862.619,1571.496,5884.611,1465.5,5854.611z"/>
</g>
</svg>
